<svg xmlns="http://www.w3.org/2000/svg" viewBox="0 0 120 230" role="img" aria-label="Refill fusti cask with tap">
  <ellipse cx="60" cy="34" rx="30" ry="9" fill="#cfd3d6" stroke="#33401f" stroke-width="3"/>
  <path d="M30 34 L30 176 C30 184 44 190 60 190 C76 190 90 184 90 176 L90 34" fill="#dfe3e6" stroke="#33401f" stroke-width="3"/>
  <path d="M30 34 C30 42 44 48 60 48 C76 48 90 42 90 34" fill="none" stroke="#33401f" stroke-width="2" opacity=".5"/>
  <rect x="44" y="20" width="32" height="10" rx="3" fill="#9aa0a4"/>
  <rect x="52" y="10" width="16" height="12" rx="3" fill="#7d8388"/>
  <rect x="46" y="70" width="28" height="70" rx="3" fill="#f2eede"/>
  <rect x="52" y="84" width="16" height="4" rx="2" fill="#4a5d29"/>
  <rect x="52" y="96" width="16" height="3" rx="1.5" fill="#bd5a37"/>
  <ellipse cx="60" cy="118" rx="6" ry="8" fill="#bda640"/>
  <!-- spigot -->
  <rect x="86" y="150" width="16" height="7" rx="2" fill="#4a5d29"/>
  <rect x="98" y="157" width="6" height="12" rx="2" fill="#4a5d29"/>
  <path d="M101 172 l-4 8 8 0 z" fill="#c69a3f"/>
</svg>
