<svg xmlns="http://www.w3.org/2000/svg" viewBox="0 0 120 230" role="img" aria-label="Olive oil tin">
  <rect x="70" y="20" width="10" height="16" rx="2" fill="#bd5a37" transform="rotate(12 75 28)"/>
  <path d="M60 30 L86 42 L82 52 L56 40 Z" fill="#9c4526"/>
  <path d="M30 54 L78 44 L86 66 L86 206 C86 214 80 218 72 218 L40 218 C32 218 30 212 30 206 Z" fill="#c8b25a" stroke="#33401f" stroke-width="3"/>
  <path d="M30 54 L78 44 L86 66 L38 74 Z" fill="#d8c877" stroke="#33401f" stroke-width="3"/>
  <rect x="40" y="92" width="38" height="96" rx="3" fill="#f2eede"/>
  <rect x="47" y="104" width="24" height="5" rx="2.5" fill="#4a5d29"/>
  <rect x="47" y="118" width="24" height="3" rx="1.5" fill="#bd5a37"/>
  <path d="M47 150 q7 -12 14 0 q7 12 14 0" fill="none" stroke="#a9bd77" stroke-width="2.5"/>
  <ellipse cx="59" cy="168" rx="4.5" ry="6" fill="#6b8038"/>
</svg>
