<svg xmlns="http://www.w3.org/2000/svg" viewBox="0 0 120 230" role="img" aria-label="Squeeze bottle">
  <rect x="53" y="6" width="14" height="12" rx="2" fill="#bd5a37"/>
  <rect x="45" y="17" width="30" height="24" rx="5" fill="#9c4526"/>
  <rect x="51" y="41" width="18" height="14" fill="#7d8a52"/>
  <path d="M30 84 C 30 62 48 55 60 55 C 72 55 90 62 90 84 L90 198 C90 212 81 220 70 220 L50 220 C39 220 30 212 30 198 Z" fill="#f2eede" stroke="#33401f" stroke-width="3"/>
  <path d="M33 120 L87 120 L87 197 C87 210 79 217 70 217 L50 217 C41 217 33 210 33 197 Z" fill="#bda640"/>
  <rect x="33" y="126" width="54" height="46" rx="2" fill="#fffdf7"/>
  <rect x="40" y="138" width="40" height="4" rx="2" fill="#c69a3f"/>
  <rect x="40" y="150" width="30" height="3" rx="1.5" fill="#a9bd77"/>
</svg>
